<?xml version="1.0" encoding="UTF-8"?>
<svg width="78px" height="15px" viewBox="0 0 78 15" version="1.1" xmlns="http://www.w3.org/2000/svg" xmlns:xlink="http://www.w3.org/1999/xlink">
    <!-- Generator: Sketch 47.1 (45422) - http://www.bohemiancoding.com/sketch -->
    <title>Group 16</title>
    <desc>Created with Sketch.</desc>
    <defs></defs>
    <g id="Page-1" stroke="none" stroke-width="1" fill="none" fill-rule="evenodd">
        <g id="Group-16" transform="translate(0.000000, -1.000000)">
            <rect id="Rectangle-3-Copy-11" x="0" y="0" width="78" height="18"></rect>
            <g id="Page-1" transform="translate(0.000000, 1.000000)">
                <polygon id="Fill-1" fill="#5CB231" points="6.653 12.074 8.316 12.074 8.316 0.016 6.653 0.016"></polygon>
                <polygon id="Fill-2" fill="#FFC107" points="3.326 12.074 4.989 12.074 4.989 4.174 3.326 4.174"></polygon>
                <polygon id="Fill-3" fill="#FF7043" points="0 12.074 1.663 12.074 1.663 8.332 0 8.332"></polygon>
                <polygon id="Fill-4" fill="#00A0E9" points="9.9792 0.0159 9.9792 12.0739 11.6422 12.0739 11.6422 1.6789 14.5532 1.6789 14.5532 0.0159"></polygon>
                <polygon id="Fill-5" fill="#002859" points="29.673 -0.0003 27.066 9.2887 24.722 -0.0003 23.414 -0.0003 21.064 9.2887 18.447 -0.0003 16.668 -0.0003 20.318 12.0527 21.874 12.0527 24.061 3.0557 26.229 12.0527 27.81 12.0527 31.453 -0.0003"></polygon>
                <g id="Group-18" transform="translate(32.000000, 0.000000)" fill="#002859">
                    <g id="Group-8">
                        <path d="M1.837,12.0528 L0.198,12.0528 L0.198,-0.0002 L1.837,-0.0002 L1.837,3.9818 C2.102,3.5898 2.445,3.2948 2.867,3.0958 C3.29,2.8978 3.782,2.7978 4.345,2.7978 C5.449,2.7978 6.307,3.1508 6.92,3.8578 C7.532,4.5638 7.838,5.5548 7.838,6.8298 L7.838,12.0528 L6.199,12.0528 L6.199,7.3598 C6.199,6.3488 6.028,5.5988 5.686,5.1078 C5.344,4.6158 4.82,4.3708 4.113,4.3708 C3.683,4.3708 3.302,4.4698 2.971,4.6688 C2.64,4.8678 2.375,5.1548 2.176,5.5298 C2.055,5.7558 1.968,6.0318 1.916,6.3578 C1.863,6.6828 1.837,7.2018 1.837,7.9138 L1.837,12.0528 Z" id="Fill-6"></path>
                    </g>
                    <path d="M10.9225,7.442 C10.9225,8.364 11.2275,9.136 11.8375,9.76 C12.4465,10.384 13.1935,10.695 14.0765,10.695 C14.8825,10.695 15.5925,10.382 16.2085,9.756 C16.8235,9.129 17.1315,8.397 17.1315,7.558 C17.1315,6.664 16.8265,5.898 16.2165,5.261 C15.6075,4.623 14.8825,4.305 14.0435,4.305 C13.1825,4.305 12.4465,4.608 11.8375,5.215 C11.2275,5.822 10.9225,6.565 10.9225,7.442 L10.9225,7.442 Z M17.0485,12.053 L17.0485,10.936 C16.6295,11.371 16.1615,11.701 15.6455,11.924 C15.1295,12.148 14.5785,12.26 13.9935,12.26 C12.6255,12.26 11.4885,11.803 10.5835,10.89 C9.6775,9.976 9.2255,8.833 9.2255,7.459 C9.2255,6.818 9.3385,6.212 9.5655,5.637 C9.7915,5.063 10.1145,4.558 10.5335,4.123 C10.9915,3.642 11.4925,3.288 12.0365,3.059 C12.5795,2.83 13.1995,2.715 13.8945,2.715 C14.5185,2.715 15.0915,2.826 15.6165,3.046 C16.1405,3.267 16.6185,3.601 17.0485,4.048 L17.0485,2.947 L18.7045,2.947 L18.7045,12.053 L17.0485,12.053 Z" id="Fill-9"></path>
                    <g id="Group-13" transform="translate(18.000000, 0.000000)">
                        <polygon id="Fill-11" points="5.193 12.0528 3.446 12.0528 3.446 1.6228 0.347 1.6228 0.347 -0.0002 8.292 -0.0002 8.292 1.6228 5.193 1.6228"></polygon>
                    </g>
                    <path d="M26.8605,7.442 C26.8605,8.364 27.1655,9.136 27.7755,9.76 C28.3845,10.384 29.1315,10.695 30.0145,10.695 C30.8205,10.695 31.5305,10.382 32.1465,9.756 C32.7615,9.129 33.0685,8.397 33.0685,7.558 C33.0685,6.664 32.7645,5.898 32.1545,5.261 C31.5445,4.623 30.8205,4.305 29.9815,4.305 C29.1205,4.305 28.3845,4.608 27.7755,5.215 C27.1655,5.822 26.8605,6.565 26.8605,7.442 L26.8605,7.442 Z M32.9865,12.053 L32.9865,10.936 C32.5675,11.371 32.0995,11.701 31.5835,11.924 C31.0675,12.148 30.5165,12.26 29.9315,12.26 C28.5635,12.26 27.4265,11.803 26.5215,10.89 C25.6155,9.976 25.1635,8.833 25.1635,7.459 C25.1635,6.818 25.2765,6.212 25.5035,5.637 C25.7295,5.063 26.0525,4.558 26.4715,4.123 C26.9295,3.642 27.4305,3.288 27.9735,3.059 C28.5175,2.83 29.1365,2.715 29.8325,2.715 C30.4565,2.715 31.0295,2.826 31.5545,3.046 C32.0785,3.267 32.5555,3.601 32.9865,4.048 L32.9865,2.947 L34.6425,2.947 L34.6425,12.053 L32.9865,12.053 Z" id="Fill-14"></path>
                    <path d="M38.1027,7.442 C38.1027,8.341 38.4047,9.109 39.0087,9.743 C39.6137,10.378 40.3347,10.695 41.1737,10.695 C42.0297,10.695 42.7637,10.39 43.3757,9.781 C43.9887,9.171 44.2947,8.43 44.2947,7.558 C44.2947,6.636 43.9917,5.864 43.3837,5.24 C42.7767,4.616 42.0347,4.305 41.1577,4.305 C40.3517,4.305 39.6417,4.618 39.0257,5.244 C38.4107,5.87 38.1027,6.603 38.1027,7.442 M38.1527,10.952 L38.1527,15 L36.5137,15 L36.5137,2.947 L38.1687,2.947 L38.1687,4.065 C38.5877,3.634 39.0557,3.307 39.5717,3.084 C40.0877,2.86 40.6387,2.748 41.2237,2.748 C42.5977,2.748 43.7367,3.204 44.6427,4.114 C45.5477,5.025 45.9997,6.167 45.9997,7.542 C45.9997,8.176 45.8867,8.78 45.6607,9.354 C45.4347,9.928 45.1087,10.439 44.6837,10.886 C44.2257,11.366 43.7247,11.721 43.1817,11.949 C42.6377,12.178 42.0187,12.293 41.3227,12.293 C40.7047,12.293 40.1317,12.181 39.6047,11.958 C39.0787,11.734 38.5937,11.399 38.1527,10.952" id="Fill-16"></path>
                </g>
            </g>
        </g>
    </g>
</svg>